0.16m3min_grf.mot
version=1
nRows=20
nColumns 19
inDegrees=yes
endheader
time	1_ground_force_vx	1_ground_force_vy	1_ground_force_vz	1_ground_force_px	1_ground_force_py	1_ground_force_pz	1_ground_torque_x	1_ground_torque_y	1_ground_torque_z	2_ground_force_vx	2_ground_force_vy	2_ground_force_vz	2_ground_force_px	2_ground_force_py	2_ground_force_pz	2_ground_torque_x	2_ground_torque_y	2_ground_torque_z
            0.005000	           -0.594615	           -4.868075	            0.164033	           -0.270790	            0.006515	           -0.475131	           -0.587328	           -0.082444	           -0.287307	           -0.039457	           -2.026470	            0.180505	           -0.278086	            0.005451	           -0.689530	           -0.413269	           -0.001559	            0.019026
            0.005500	           -0.594208	           -5.229196	            0.300055	           -0.270790	            0.006515	           -0.475131	           -0.593078	            0.037885	           -0.324360	            0.287225	           -1.657492	            0.322464	           -0.278086	            0.005451	           -0.689530	           -0.319035	           -0.095478	           -0.056752
            0.006000	           -0.091238	           -4.325804	           -0.155891	           -0.270790	            0.006515	           -0.475131	           -0.649016	            0.130282	           -0.245961	            0.095817	           -0.553111	            0.279558	           -0.278086	            0.005451	           -0.689530	           -0.337683	           -0.133357	           -0.056879
            0.006500	           -0.136739	           -4.326403	           -0.018210	           -0.270790	            0.006515	           -0.475131	           -0.598707	            0.112031	           -0.304513	            0.242389	           -2.210273	            0.367440	           -0.278086	            0.005451	           -0.689530	           -0.356358	           -0.161850	           -0.038122
            0.007000	           -0.319590	           -4.687756	            0.164123	           -0.270790	            0.006515	           -0.475131	           -0.662427	            0.009941	           -0.237406	            0.100469	           -1.842149	            0.274958	           -0.278086	            0.005451	           -0.689530	           -0.318958	           -0.114451	           -0.037969
            0.007500	           -0.411423	           -4.507311	            0.119268	           -0.270790	            0.006515	           -0.475131	           -0.566860	           -0.082277	           -0.298349	            0.057025	           -2.763729	            0.459405	           -0.278086	            0.005451	           -0.689530	           -0.281456	           -0.095410	           -0.037918
            0.008000	           -0.273274	           -5.409400	            0.298485	           -0.270790	            0.006515	           -0.475131	           -0.611761	           -0.137434	           -0.348972	            0.099825	           -1.658168	            0.322543	           -0.278086	            0.005451	           -0.689530	           -0.375544	           -0.057737	           -0.094294
            0.008500	           -0.319835	           -3.966497	            0.121359	           -0.270790	            0.006515	           -0.475131	           -0.586167	           -0.026455	           -0.369364	            0.237737	           -0.921235	            0.372040	           -0.278086	            0.005451	           -0.689530	           -0.337998	           -0.057399	           -0.150860
            0.009000	           -0.365777	           -3.425708	            0.123792	           -0.270790	            0.006515	           -0.475131	           -0.624077	            0.047464	           -0.370927	            0.055593	           -2.394596	            0.226079	           -0.278086	            0.005451	           -0.689530	           -0.337820	           -0.095546	           -0.056744
            0.009500	           -0.228099	           -4.867611	            0.071411	           -0.270790	            0.006515	           -0.475131	           -0.564689	            0.111918	           -0.289690	            0.053640	           -1.842486	            0.321906	           -0.278086	            0.005451	           -0.689530	           -0.356384	           -0.152465	           -0.019238
            0.010000	           -0.319772	           -3.065561	            0.216936	           -0.270790	            0.006515	           -0.475131	           -0.553039	            0.084314	           -0.331407	            0.380281	           -1.473172	            0.370009	           -0.278086	            0.005451	           -0.689530	           -0.374991	           -0.199863	           -0.000549
            0.010500	           -0.044598	           -4.327171	            0.164986	           -0.270790	            0.006515	           -0.475131	           -0.550225	           -0.017238	           -0.320077	            0.098455	           -1.289537	            0.230001	           -0.278086	            0.005451	           -0.689530	           -0.375551	           -0.066853	           -0.188578
            0.011000	           -0.272998	           -5.049458	            0.437599	           -0.270790	            0.006515	           -0.475131	           -0.674085	           -0.119116	           -0.311156	            0.053640	           -1.842486	            0.321906	           -0.278086	            0.005451	           -0.689530	           -0.450617	           -0.076913	           -0.094329
            0.011500	           -0.135811	           -5.048842	            0.299690	           -0.270790	            0.006515	           -0.475131	           -0.611848	           -0.082152	           -0.286489	           -0.135815	           -1.290215	            0.183173	           -0.278086	            0.005451	           -0.689530	           -0.300453	           -0.047878	           -0.131992
            0.012000	           -0.181525	           -4.508447	            0.393834	           -0.270790	            0.006515	           -0.475131	           -0.578716	           -0.035705	           -0.344741	            0.103751	           -2.762556	            0.177817	           -0.278086	            0.005451	           -0.689530	           -0.338109	           -0.019790	           -0.094175
            0.012500	           -0.319443	           -4.868218	            0.209206	           -0.270790	            0.006515	           -0.475131	           -0.645788	            0.084377	           -0.349911	            0.150766	           -2.763726	            0.553222	           -0.278086	            0.005451	           -0.689530	           -0.337974	           -0.048417	           -0.018875
            0.013000	           -0.686546	           -4.146833	            0.121496	           -0.270790	            0.006515	           -0.475131	           -0.717279	            0.074625	           -0.290246	            0.196184	           -2.394423	            0.319875	           -0.278086	            0.005451	           -0.689530	           -0.356427	           -0.142945	           -0.038055
            0.013500	           -0.227775	           -4.147334	            0.257926	           -0.270790	            0.006515	           -0.475131	           -0.648335	            0.075418	           -0.402453	           -0.133801	           -1.842828	            0.228130	           -0.278086	            0.005451	           -0.689530	           -0.300130	           -0.123903	           -0.019161
            0.014000	           -0.136317	           -4.146923	            0.165987	           -0.270790	            0.006515	           -0.475131	           -0.625482	           -0.035701	           -0.342683	            0.052331	           -1.474356	            0.370148	           -0.278086	            0.005451	           -0.689530	           -0.356683	           -0.067458	           -0.000084
            0.014500	           -0.274008	           -4.507088	            0.073070	           -0.270790	            0.006515	           -0.475131	           -0.602612	           -0.128117	           -0.367785	            0.102422	           -2.394259	            0.179131	           -0.278086	            0.005451	           -0.689530	           -0.356801	           -0.048149	           -0.113118
